<svg width="120" height="120" viewBox="0 0 120 120" xmlns="http://www.w3.org/2000/svg">
  <defs>
    <linearGradient id="baptemeGradient" x1="0%" y1="0%" x2="100%" y2="100%">
      <stop offset="0%" style="stop-color:#6bb6ff;stop-opacity:1" />
      <stop offset="100%" style="stop-color:#4a90e2;stop-opacity:1" />
    </linearGradient>
  </defs>
  
  <!-- Background circle -->
  <circle cx="60" cy="60" r="50" fill="url(#baptemeGradient)" stroke="#fff" stroke-width="2"/>
  
  <!-- Water drops -->
  <g fill="#fff">
    <!-- Large central drop -->
    <path d="M60 25 C50 35, 50 45, 60 45 C70 45, 70 35, 60 25 Z"/>
    
    <!-- Smaller drops -->
    <path d="M45 40 C40 45, 40 50, 45 50 C50 50, 50 45, 45 40 Z"/>
    <path d="M75 40 C70 45, 70 50, 75 50 C80 50, 80 45, 75 40 Z"/>
    
    <!-- Tiny drops -->
    <circle cx="35" cy="55" r="3"/>
    <circle cx="85" cy="55" r="3"/>
    <circle cx="50" cy="65" r="2"/>
    <circle cx="70" cy="65" r="2"/>
  </g>
  
  <!-- Baptismal font/bowl -->
  <g fill="#fff" stroke="#4a90e2" stroke-width="2">
    <ellipse cx="60" cy="85" rx="25" ry="8"/>
    <rect x="35" y="75" width="50" height="10" rx="2"/>
  </g>
  
  <!-- Cross symbol -->
  <g fill="#fff">
    <rect x="57" y="55" width="6" height="20" rx="1"/>
    <rect x="50" y="62" width="20" height="6" rx="1"/>
  </g>
</svg>
