<svg width="120" height="120" viewBox="0 0 120 120" xmlns="http://www.w3.org/2000/svg">
  <defs>
    <linearGradient id="donnerGradient" x1="0%" y1="0%" x2="100%" y2="100%">
      <stop offset="0%" style="stop-color:#28a745;stop-opacity:1" />
      <stop offset="100%" style="stop-color:#20c997;stop-opacity:1" />
    </linearGradient>
  </defs>
  
  <!-- Background circle -->
  <circle cx="60" cy="60" r="50" fill="url(#donnerGradient)" stroke="#fff" stroke-width="2"/>
  
  <!-- Heart symbol (love/charity) -->
  <g fill="#fff" transform="translate(60, 45)">
    <path d="M0 8 C-8 -4, -20 -4, -20 8 C-20 16, 0 28, 0 28 C0 28, 20 16, 20 8 C20 -4, 8 -4, 0 8 Z"/>
  </g>
  
  <!-- Hands giving/receiving -->
  <g fill="#fff" transform="translate(30, 65)">
    <!-- Left hand giving -->
    <path d="M0 5 C0 3, 2 1, 4 1 C6 1, 8 3, 8 5 L8 15 C8 17, 6 19, 4 19 C2 19, 0 17, 0 15 Z"/>
    <!-- Fingers -->
    <rect x="1" y="0" width="2" height="8" rx="1"/>
    <rect x="3" y="-1" width="2" height="9" rx="1"/>
    <rect x="5" y="0" width="2" height="8" rx="1"/>
  </g>
  
  <g fill="#fff" transform="translate(75, 65)">
    <!-- Right hand receiving -->
    <path d="M8 5 C8 3, 6 1, 4 1 C2 1, 0 3, 0 5 L0 15 C0 17, 2 19, 4 19 C6 19, 8 17, 8 15 Z"/>
    <!-- Fingers -->
    <rect x="5" y="0" width="2" height="8" rx="1"/>
    <rect x="3" y="-1" width="2" height="9" rx="1"/>
    <rect x="1" y="0" width="2" height="8" rx="1"/>
  </g>
  
  <!-- Coins/money -->
  <g fill="#ffd700" stroke="#fff" stroke-width="1">
    <circle cx="45" cy="75" r="4"/>
    <circle cx="55" cy="78" r="3"/>
    <circle cx="65" cy="75" r="4"/>
    <circle cx="75" cy="78" r="3"/>
  </g>
  
  <!-- Cross symbols on coins -->
  <g fill="#28a745">
    <g transform="translate(45, 75)">
      <rect x="-1" y="-2" width="2" height="4" rx="0.5"/>
      <rect x="-2" y="-1" width="4" height="2" rx="0.5"/>
    </g>
    <g transform="translate(65, 75)">
      <rect x="-1" y="-2" width="2" height="4" rx="0.5"/>
      <rect x="-2" y="-1" width="4" height="2" rx="0.5"/>
    </g>
  </g>
  
  <!-- Sparkles/blessing -->
  <g fill="#fff" opacity="0.8">
    <g transform="translate(25, 35)">
      <path d="M0 0 L1 3 L4 4 L1 5 L0 8 L-1 5 L-4 4 L-1 3 Z"/>
    </g>
    <g transform="translate(95, 40)">
      <path d="M0 0 L1 2 L3 3 L1 4 L0 6 L-1 4 L-3 3 L-1 2 Z"/>
    </g>
    <g transform="translate(85, 25)">
      <path d="M0 0 L0.5 1.5 L2 2 L0.5 2.5 L0 4 L-0.5 2.5 L-2 2 L-0.5 1.5 Z"/>
    </g>
  </g>
</svg>
