<svg width="120" height="120" viewBox="0 0 120 120" xmlns="http://www.w3.org/2000/svg">
  <defs>
    <linearGradient id="obsequesGradient" x1="0%" y1="0%" x2="100%" y2="100%">
      <stop offset="0%" style="stop-color:#9c88ff;stop-opacity:1" />
      <stop offset="100%" style="stop-color:#7b68ee;stop-opacity:1" />
    </linearGradient>
  </defs>
  
  <!-- Background circle -->
  <circle cx="60" cy="60" r="50" fill="url(#obsequesGradient)" stroke="#fff" stroke-width="2"/>
  
  <!-- Cross -->
  <g fill="#fff">
    <rect x="55" y="25" width="10" height="40" rx="2"/>
    <rect x="40" y="40" width="40" height="10" rx="2"/>
  </g>
  
  <!-- Candle -->
  <g fill="#fff">
    <!-- Candle base -->
    <rect x="35" y="70" width="8" height="20" rx="1"/>
    <!-- Flame -->
    <ellipse cx="39" cy="68" rx="3" ry="5" fill="#ffd700"/>
    <!-- Wax drip -->
    <circle cx="37" cy="75" r="1" fill="#f0f0f0"/>
  </g>
  
  <!-- Lily flower -->
  <g fill="#fff" transform="translate(70, 65)">
    <!-- Petals -->
    <path d="M0 0 C-5 -8, 5 -8, 0 0 C8 -5, 8 5, 0 0 C5 8, -5 8, 0 0 C-8 5, -8 -5, 0 0 Z"/>
    <!-- Center -->
    <circle cx="0" cy="0" r="2" fill="#ffd700"/>
    <!-- Stem -->
    <rect x="-1" y="0" width="2" height="15" fill="#90ee90"/>
  </g>
  
  <!-- Peaceful dove -->
  <g fill="#fff" transform="translate(75, 35) scale(0.8)">
    <path d="M0 5 C-2 3, -2 7, 0 5 C2 3, 8 0, 12 2 C15 3, 12 6, 8 5 C4 4, 2 7, 0 5 Z"/>
    <circle cx="8" cy="3" r="1" fill="#333"/>
  </g>
</svg>
