<svg width="120" height="120" viewBox="0 0 120 120" xmlns="http://www.w3.org/2000/svg">
  <defs>
    <linearGradient id="mariageGradient" x1="0%" y1="0%" x2="100%" y2="100%">
      <stop offset="0%" style="stop-color:#ff6b9d;stop-opacity:1" />
      <stop offset="100%" style="stop-color:#e91e63;stop-opacity:1" />
    </linearGradient>
  </defs>
  
  <!-- Background circle -->
  <circle cx="60" cy="60" r="50" fill="url(#mariageGradient)" stroke="#fff" stroke-width="2"/>
  
  <!-- Wedding rings -->
  <g fill="none" stroke="#fff" stroke-width="4">
    <!-- Left ring -->
    <circle cx="45" cy="55" r="12"/>
    <!-- Right ring -->
    <circle cx="75" cy="55" r="12"/>
  </g>
  
  <!-- Ring intersection highlight -->
  <g fill="#fff" opacity="0.8">
    <circle cx="52" cy="55" r="2"/>
    <circle cx="68" cy="55" r="2"/>
  </g>
  
  <!-- Hearts -->
  <g fill="#fff">
    <!-- Small hearts around rings -->
    <path d="M35 40 C32 37, 28 37, 28 42 C28 45, 35 50, 35 50 C35 50, 42 45, 42 42 C42 37, 38 37, 35 40 Z"/>
    <path d="M85 40 C82 37, 78 37, 78 42 C78 45, 85 50, 85 50 C85 50, 92 45, 92 42 C92 37, 88 37, 85 40 Z"/>
  </g>
  
  <!-- Wedding bells -->
  <g fill="#fff" transform="translate(55, 75)">
    <path d="M0 0 C-3 0, -5 2, -5 5 L-5 8 C-5 10, -3 12, 0 12 C3 12, 5 10, 5 8 L5 5 C5 2, 3 0, 0 0 Z"/>
    <circle cx="0" cy="14" r="1"/>
    <path d="M8 2 C5 2, 3 4, 3 7 L3 10 C3 12, 5 14, 8 14 C11 14, 13 12, 13 10 L13 7 C13 4, 11 2, 8 2 Z"/>
    <circle cx="8" cy="16" r="1"/>
  </g>
</svg>
